<svg xmlns="http://www.w3.org/2000/svg" width="424" height="424" viewBox="0 0 424 424"><defs><linearGradient id="ekp5a" x1="34.09" x2="389.91" y1=".09" y2="423.91" gradientUnits="userSpaceOnUse"><stop offset="0" stop-color="#f7cb6b" stop-opacity=".93"/><stop offset="1" stop-color="#fba980" stop-opacity=".93"/></linearGradient></defs><g><g><path fill="#edd962" d="M256.194 18.333l149.633 150.18c24.168 24.256 24.097 63.512-.16 87.68l-150.18 149.634c-24.256 24.168-63.512 24.097-87.68-.16L18.172 255.487c-24.168-24.256-24.097-63.512.16-87.68l150.18-149.634c24.256-24.168 63.512-24.097 87.68.16z"/><path fill="url(#ekp5a)" d="M256.194 18.333l149.633 150.18c24.168 24.256 24.097 63.512-.16 87.68l-150.18 149.634c-24.256 24.168-63.512 24.097-87.68-.16L18.172 255.487c-24.168-24.256-24.097-63.512.16-87.68l150.18-149.634c24.256-24.168 63.512-24.097 87.68.16z"/></g></g></svg>